<?xml version="1.0" standalone="no"?>
<!DOCTYPE svg PUBLIC "-//W3C//DTD SVG 20010904//EN"
 "http://www.w3.org/TR/2001/REC-SVG-20010904/DTD/svg10.dtd">
<svg version="1.0" xmlns="http://www.w3.org/2000/svg"
 width="708.000000pt" height="708.000000pt" viewBox="0 0 708.000000 708.000000"
 preserveAspectRatio="xMidYMid meet">
<metadata>
Created by potrace 1.11, written by Peter Selinger 2001-2013
</metadata>
<g transform="translate(0.000000,708.000000) scale(0.100000,-0.100000)"
fill="#000000" stroke="none">
<path d="M3309 6526 c-2 -2 -38 -7 -79 -10 -147 -14 -264 -34 -450 -77 -101
-24 -358 -109 -434 -144 -30 -14 -58 -25 -62 -25 -12 0 -263 -129 -341 -176
-95 -57 -267 -175 -271 -186 -2 -4 -10 -8 -17 -8 -7 0 -15 -3 -17 -7 -1 -5
-43 -42 -93 -83 -204 -169 -420 -410 -570 -635 -267 -401 -403 -767 -479
-1285 -24 -166 -25 -576 -1 -695 2 -11 7 -40 10 -65 32 -268 129 -591 260
-863 219 -459 585 -883 1015 -1179 409 -281 887 -460 1400 -522 247 -31 650
-22 850 18 14 3 52 10 85 15 312 53 707 198 980 361 28 16 63 37 79 46 27 15
108 70 186 124 159 113 407 342 539 499 296 349 519 786 620 1215 25 103 51
240 57 294 3 30 7 63 9 71 7 35 18 241 18 326 0 132 -12 297 -28 405 -8 52
-17 113 -20 135 -4 22 -11 58 -17 80 -5 22 -12 51 -14 65 -11 59 -68 243 -116
370 -242 641 -749 1221 -1358 1553 -288 157 -618 277 -910 330 -14 3 -36 8
-50 11 -14 3 -43 7 -65 10 -57 7 -115 15 -155 22 -40 6 -554 16 -561 10z m390
-420 c68 -4 126 -8 130 -10 3 -2 36 -7 73 -10 135 -11 385 -73 561 -137 110
-40 348 -152 437 -205 49 -29 206 -132 230 -151 8 -6 51 -40 95 -75 111 -87
306 -284 402 -404 227 -287 386 -602 474 -941 34 -132 35 -141 64 -323 22
-144 22 -484 -1 -628 -2 -15 -6 -40 -9 -57 -2 -16 -7 -47 -11 -69 -45 -294
-195 -665 -382 -946 -321 -482 -778 -837 -1330 -1034 -155 -55 -365 -106 -507
-122 -27 -3 -56 -7 -63 -10 -69 -22 -531 -22 -649 0 -10 2 -40 7 -68 10 -269
34 -595 141 -860 281 -128 68 -121 63 -230 136 -222 148 -450 356 -606 554
-357 453 -551 996 -553 1550 0 202 17 379 56 555 6 30 12 57 13 60 1 3 5 19 9
35 94 360 271 704 514 995 25 30 104 114 176 185 333 333 759 571 1221 686
123 30 206 46 285 55 25 2 56 7 70 9 14 3 88 8 165 11 77 4 142 8 143 10 2 1
9 1 15 -1 7 -2 68 -6 136 -9z"/>
<path d="M3346 4904 c-234 -38 -415 -111 -604 -244 -314 -220 -539 -601 -579
-975 -29 -275 18 -556 129 -780 31 -61 97 -176 107 -185 4 -3 19 -24 35 -48
42 -61 190 -212 266 -269 56 -43 232 -153 245 -153 2 0 28 -11 57 -23 111 -50
242 -86 368 -103 70 -10 288 -10 362 -1 457 56 859 336 1071 747 115 222 157
408 152 670 -3 173 -5 186 -35 316 -99 424 -433 805 -852 970 -61 24 -216 67
-288 79 -72 13 -355 12 -434 -1z m379 -409 c387 -69 696 -358 796 -743 26 -99
33 -298 14 -402 -58 -318 -254 -579 -543 -725 -270 -135 -613 -132 -887 8
-323 165 -540 518 -538 877 0 130 11 202 48 314 97 297 338 538 635 635 64 21
82 26 170 40 53 9 247 7 305 -4z"/>
<path d="M3573 4198 c-16 -18 -18 -46 -18 -349 0 -322 0 -329 -20 -330 -11 0
-107 -1 -213 -1 -239 0 -233 3 -234 -117 -1 -128 -22 -121 356 -121 171 0 316
4 322 8 6 4 15 18 19 31 4 13 7 213 7 445 -1 493 10 453 -121 453 -67 1 -83
-2 -98 -19z"/>
</g>
</svg>
